<svg xmlns:xlink="http://www.w3.org/1999/xlink" xmlns="http://www.w3.org/2000/svg" viewBox="0 0 420.31 136.57" width="420.31"  height="136.57" ><defs><style>.cls-1{fill:#1d1d1b;}</style></defs><title>Element 1</title><g id="Ebene_2" data-name="Ebene 2"><g id="Layer_1" data-name="Layer 1"><path class="cls-1" d="M0,56.33V76.66c0,19.41,12.09,29.27,35.31,29.27,13.83,0,21.79-2.55,29.9-11.45L52,81.59c-4.3,4.93-8,6.84-15.91,6.84-11,0-15.43-4-15.43-13V71.26H40.24c19.24,0,28.31-10.82,28.31-24,0-7.32-2.39-14-6.84-18.61-4.93-4.93-11.77-7.31-21.16-7.31s-19.74,0-28,6.38C3.13,35,0,44.46,0,56.33Zm20.67-3.68c0-5.09.8-8.43,3-10.5,3.65-3.5,7.31-4,13-4,8.11,0,11.93,3.81,11.93,9.54,0,5.88-4.14,9.38-11.61,9.38H20.67V52.65Z"/><path class="cls-1" d="M300.26,70.91V50.58c0-19.4-12.09-29.26-35.31-29.26-13.83,0-21.78,2.54-29.9,11.45l13.2,12.88c4.3-4.93,8-6.84,15.91-6.84,11,0,15.42,4,15.42,13V56H260c-19.24,0-28.31,10.81-28.31,24,0,7.32,2.39,14,6.84,18.61,4.93,4.93,11.77,7.32,21.16,7.32,9.54,0,19.74,0,28-6.39,9.44-7.31,12.57-16.76,12.57-28.63ZM279.58,74.6c0,5.08-.79,8.42-3,10.49-3.65,3.5-7.31,4-13,4-8.11,0-11.93-3.82-11.93-9.54,0-5.89,4.14-9.39,11.61-9.39h16.38V74.6Z"/><path class="cls-1" d="M146.53,105.92V52.48c0-9.15-1.76-17-8.5-23.75-4.66-4.66-11.4-7.39-19.74-7.39A28.59,28.59,0,0,0,97.43,30v-7.7H77.05v83.61H97.91V55.37c0-11.4,7.38-15.25,14-15.25s13.8,3.85,13.8,15.25v50.55ZM226.13,64c0-12.52-.16-26.8-8.5-35.14-4.66-4.66-12.2-7.55-20.38-7.55-8.83,0-15.09,2.41-20.87,8.83V22.31H156.16V136.57H177v-38c5.46,6.09,11.72,8.34,20.23,8.34,8.18,0,15.72-2.89,20.38-7.54C226,91,226.13,76.55,226.13,64Zm-20.86,0c0,13.64-1.61,24.07-14.12,24.07S177,77.67,177,64s1.61-23.91,14.13-23.91S205.27,50.39,205.27,64ZM369.76,95.49l-14.12-14c-4.33,4.66-8,6.58-13.48,6.58a14.47,14.47,0,0,1-11.88-5.45c-3.21-4-4.65-9.79-4.65-18.62s1.44-14.44,4.65-18.45a14.48,14.48,0,0,1,11.88-5.46c5.46,0,9.15,1.93,13.48,6.58l14.12-14.12c-7.38-7.71-16.05-11.24-27.6-11.24-16.69,0-37.39,8.83-37.39,42.69s20.7,42.85,37.39,42.85c11.55,0,20.22-3.69,27.6-11.39Zm50.55,10.43V88.26h-7.54c-5,0-7.22-2.72-7.22-7.54V40.6h14.76V24.71H405.55V0H384.68V24.71h-8.82V40.6h8.82V82c0,11.87,7.23,23.91,24.24,23.91Z"/></g></g></svg>