<?xml version="1.0" standalone="no"?>
<!DOCTYPE svg PUBLIC "-//W3C//DTD SVG 20010904//EN"
 "http://www.w3.org/TR/2001/REC-SVG-20010904/DTD/svg10.dtd">
<svg version="1.0" xmlns="http://www.w3.org/2000/svg"
 width="1315.000000pt" height="197.000000pt" viewBox="0 0 1315.000000 197.000000"
 preserveAspectRatio="xMidYMid meet">

<g transform="translate(0.000000,197.000000) scale(0.100000,-0.100000)"
fill="#000000" stroke="none">
<path d="M5070 1534 c-36 -7 -82 -16 -102 -19 -51 -8 -49 -31 2 -38 70 -9 70
-9 70 -200 l0 -171 -30 41 c-40 54 -87 76 -166 76 -76 0 -138 -27 -188 -83
-74 -82 -106 -178 -106 -321 0 -240 121 -401 301 -402 74 0 138 31 175 85 l29
41 8 -54 c4 -29 11 -57 15 -61 4 -4 32 -1 62 7 30 7 79 16 108 20 67 9 70 31
7 41 -80 12 -75 -25 -75 545 l0 509 -22 -1 c-13 -1 -52 -8 -88 -15z m-109
-400 c54 -51 72 -121 77 -290 7 -271 -42 -374 -179 -374 -46 0 -55 4 -89 38
-52 52 -71 118 -77 273 -8 189 23 326 84 366 58 38 136 33 184 -13z"/>
<path d="M440 1519 c0 -13 10 -20 38 -24 62 -11 72 -16 88 -40 14 -22 14 -63
-1 -427 -9 -222 -18 -427 -21 -456 -7 -62 -30 -92 -73 -92 -41 0 -61 -9 -61
-29 0 -14 19 -16 165 -16 146 0 165 2 165 16 0 19 -20 29 -60 29 -15 0 -38 8
-50 18 -26 21 -26 53 -10 462 5 135 11 291 12 347 2 57 5 103 8 103 4 0 194
-511 308 -830 24 -67 43 -106 53 -108 12 -2 24 21 49 90 35 101 297 814 308
838 3 8 10 -185 15 -430 l9 -444 -26 -23 c-15 -13 -37 -23 -49 -23 -40 0 -68
-12 -65 -28 3 -12 34 -15 211 -16 186 -1 207 1 207 15 0 19 -20 29 -60 29 -15
0 -38 8 -51 19 l-22 18 -10 457 c-7 330 -7 463 1 481 8 17 22 26 49 30 63 11
73 16 73 34 0 17 -12 18 -144 19 l-145 0 -29 -76 c-16 -42 -85 -227 -153 -409
-68 -183 -126 -329 -130 -325 -3 4 -63 165 -133 357 -71 193 -137 373 -147
401 l-20 52 -149 0 c-138 -1 -150 -2 -150 -19z"/>
<path d="M7137 1533 c-12 -25 1 -38 48 -46 90 -14 85 14 85 -502 0 -516 5
-488 -85 -502 -40 -7 -50 -12 -50 -28 0 -19 8 -20 210 -23 333 -4 434 16 516
105 61 67 84 123 84 213 0 125 -61 218 -168 258 -45 17 -48 20 -28 27 35 11
100 73 122 118 62 121 9 286 -112 347 -20 11 -65 24 -100 30 -73 11 -516 14
-522 3z m518 -73 c64 -31 89 -84 90 -190 0 -71 -4 -93 -25 -135 -37 -74 -84
-95 -212 -95 l-98 0 0 220 0 220 102 0 c81 0 110 -4 143 -20z m57 -508 c58
-36 83 -98 83 -207 0 -112 -26 -173 -93 -220 -40 -27 -51 -30 -145 -33 -151
-5 -141 -23 -145 258 l-3 232 133 -4 c118 -3 137 -6 170 -26z"/>
<path fill="#60ABEC" d="M12105 1530 c-217 -44 -386 -206 -441 -422 -24 -93 -15 -241 20 -332
49 -129 150 -242 269 -303 64 -32 187 -63 252 -63 149 0 302 64 405 169 112
114 162 236 162 396 0 58 -7 116 -17 152 -18 62 -73 173 -85 173 -5 0 -30 -24
-58 -54 l-49 -55 23 -48 c31 -63 43 -147 32 -224 -32 -238 -277 -406 -503
-345 -188 50 -315 212 -315 401 0 116 45 219 129 298 129 121 310 150 459 73
19 -10 35 -16 35 -14 1 2 26 28 55 59 l53 55 -67 33 c-110 54 -248 73 -359 51z"/>
<path fill="#60ABEC" d="M11318 1415 l-3 -105 78 77 c59 60 77 84 77 105 l0 28 -74 0 -75 0
-3 -105z"/>
<path d="M3605 1210 c-10 -22 -20 -40 -22 -40 -2 0 -19 11 -36 24 -96 73 -264
45 -356 -59 -76 -87 -106 -192 -99 -346 7 -128 31 -198 95 -269 62 -69 110
-92 204 -98 67 -4 84 -1 132 21 65 29 109 84 132 160 23 77 21 87 -18 87 -33
0 -34 -2 -46 -53 -24 -109 -77 -157 -173 -157 -52 0 -62 3 -98 36 -30 27 -45
52 -59 99 -61 197 -18 483 82 543 106 64 214 13 256 -121 14 -47 23 -62 37
-62 18 0 19 11 22 138 2 128 1 137 -16 137 -12 0 -25 -14 -37 -40z"/>
<path d="M6564 1216 l-17 -35 -40 21 c-91 46 -225 33 -297 -30 -74 -63 -99
-155 -64 -241 21 -53 58 -80 218 -156 108 -51 140 -70 156 -97 51 -80 -11
-185 -121 -203 -86 -15 -183 46 -214 133 -31 87 -34 92 -50 86 -22 -9 -23
-284 0 -284 9 0 23 16 32 35 9 19 20 35 24 35 3 0 27 -11 52 -26 55 -30 161
-42 224 -25 115 31 182 117 183 231 0 103 -45 154 -190 215 -113 47 -177 83
-199 111 -60 76 21 194 134 194 83 0 148 -59 161 -146 5 -38 10 -44 30 -44
l25 0 -3 127 c-3 137 -14 162 -44 99z"/>
<path fill="#60ABEC" d="M11392 1177 l-72 -72 0 -338 0 -337 75 0 75 0 0 410 c0 226 -1 410
-3 410 -1 0 -35 -33 -75 -73z"/>
<path d="M1984 1226 c-92 -23 -152 -73 -198 -165 -75 -148 -63 -400 24 -520
34 -46 105 -96 160 -111 53 -15 161 -12 213 6 83 28 154 117 172 217 l7 37
-35 0 c-32 0 -35 -3 -42 -37 -14 -76 -61 -141 -118 -162 -42 -16 -134 -13
-174 6 -66 31 -106 119 -119 262 l-7 81 247 0 246 0 0 38 c0 55 -26 164 -48
209 -58 113 -197 172 -328 139z m152 -61 c35 -23 71 -106 82 -187 l9 -68 -177
0 -177 0 8 51 c19 120 72 210 131 222 38 8 97 0 124 -18z"/>
<path d="M2624 1229 c-17 -5 -62 -12 -100 -16 -51 -6 -69 -12 -69 -23 0 -10
14 -17 48 -21 27 -3 53 -12 58 -20 5 -7 9 -156 9 -330 0 -354 3 -338 -73 -348
-26 -4 -43 -12 -45 -21 -2 -13 23 -15 183 -15 170 0 185 1 185 18 0 13 -8 17
-33 17 -18 0 -43 7 -55 16 -22 15 -22 18 -22 258 0 193 3 253 16 296 20 66 69
120 111 120 44 0 54 -12 52 -58 -3 -52 21 -82 66 -82 45 0 70 31 69 84 -3 150
-216 178 -303 40 l-29 -45 -7 71 c-7 74 -8 74 -61 59z"/>
<path d="M4053 1230 c-98 -20 -171 -78 -216 -171 -37 -75 -50 -156 -44 -274 7
-164 61 -269 166 -328 45 -25 68 -31 135 -35 98 -5 151 8 208 51 49 37 108
141 108 189 0 27 -3 29 -31 26 -29 -3 -33 -8 -49 -62 -31 -100 -91 -146 -191
-146 -135 0 -193 79 -214 293 l-7 67 246 0 246 0 0 53 c0 103 -54 237 -115
283 -65 49 -161 70 -242 54z m133 -65 c48 -31 65 -74 89 -217 l6 -38 -177 0
-177 0 7 51 c15 109 62 192 126 218 33 14 94 7 126 -14z"/>
<path d="M5640 1233 c-182 -32 -280 -174 -280 -405 0 -190 55 -309 172 -373
42 -23 68 -30 133 -33 97 -5 150 8 207 51 48 37 108 141 108 188 0 26 -3 29
-33 29 -31 0 -33 -3 -44 -51 -25 -104 -91 -159 -192 -159 -137 0 -197 80 -216
288 l-6 72 245 0 246 0 0 45 c0 150 -74 285 -183 329 -37 16 -121 26 -157 19z
m116 -68 c48 -31 69 -85 88 -217 l5 -38 -175 0 -174 0 0 28 c0 68 40 170 82
209 48 45 121 53 174 18z"/>
<path d="M8345 1230 c-66 -14 -93 -27 -141 -72 -81 -75 -124 -191 -124 -336 0
-194 76 -332 209 -383 74 -28 205 -24 267 9 61 31 111 95 134 170 11 35 20 66
20 69 0 2 -16 3 -36 1 -35 -3 -38 -6 -49 -50 -27 -106 -92 -158 -197 -158
-132 0 -191 80 -207 278 l-7 82 243 0 c133 0 244 3 246 8 9 14 -14 153 -33
205 -11 28 -33 69 -50 89 -56 68 -180 108 -275 88z m109 -54 c59 -25 94 -92
112 -218 l6 -48 -177 0 -177 0 7 46 c27 181 116 267 229 220z"/>
<path d="M8910 1219 c-36 -10 -77 -18 -92 -18 -21 -1 -28 -6 -28 -21 0 -17 7
-20 43 -20 24 0 48 -5 55 -12 9 -9 12 -96 12 -329 0 -317 0 -318 -22 -333 -12
-9 -37 -16 -55 -16 -25 0 -33 -4 -33 -17 0 -17 15 -18 180 -18 154 0 180 2
178 15 -2 9 -19 17 -42 21 -65 11 -66 15 -66 283 0 143 5 257 11 281 12 45 41
80 83 102 40 21 138 14 167 -13 45 -40 49 -67 49 -352 0 -299 2 -290 -68 -301
-21 -4 -38 -13 -40 -21 -2 -13 24 -15 183 -15 160 0 185 2 183 15 -2 9 -19 17
-47 21 -71 9 -71 10 -71 294 0 267 -6 313 -49 374 -33 46 -102 82 -168 88 -86
8 -137 -10 -199 -69 l-54 -51 0 51 c0 90 -2 91 -110 61z"/>
<path d="M9726 1212 c-6 -10 -36 -169 -36 -193 0 -38 31 -18 56 36 51 106 79
119 262 113 l102 -3 -216 -355 c-119 -195 -219 -361 -221 -368 -4 -10 53 -12
278 -10 l284 3 17 85 c31 156 32 160 13 160 -10 0 -26 -23 -44 -62 -33 -72
-73 -114 -122 -128 -34 -10 -249 -14 -249 -5 0 3 22 40 48 83 104 165 392 641
392 646 0 9 -558 7 -564 -2z"/>
<path d="M6750 875 l0 -45 185 0 185 0 0 45 0 45 -185 0 -185 0 0 -45z"/>
<path fill="#60ABEC" d="M10912 561 c-50 -55 -72 -87 -72 -105 0 -26 1 -26 75 -26 l75 0 0
105 c0 58 -1 105 -3 105 -2 0 -36 -36 -75 -79z"/>
</g>
</svg>
